<svg width="122" height="25" viewBox="0 0 122 25" fill="none" xmlns="http://www.w3.org/2000/svg">
<path d="M12.376 24.384C10.0933 24.384 8.024 23.8933 6.168 22.912C4.33333 21.9093 2.88267 20.5333 1.816 18.784C0.770667 17.0133 0.248 15.0187 0.248 12.8C0.248 10.5813 0.770667 8.59733 1.816 6.848C2.88267 5.07733 4.33333 3.70133 6.168 2.72C8.024 1.71733 10.104 1.216 12.408 1.216C14.3493 1.216 16.0987 1.55733 17.656 2.24C19.2347 2.92267 20.5573 3.904 21.624 5.184L18.296 8.256C16.7813 6.50667 14.904 5.632 12.664 5.632C11.2773 5.632 10.04 5.94133 8.952 6.56C7.864 7.15733 7.01067 8 6.392 9.088C5.79467 10.176 5.496 11.4133 5.496 12.8C5.496 14.1867 5.79467 15.424 6.392 16.512C7.01067 17.6 7.864 18.4533 8.952 19.072C10.04 19.6693 11.2773 19.968 12.664 19.968C14.904 19.968 16.7813 19.0827 18.296 17.312L21.624 20.384C20.5573 21.6853 19.2347 22.6773 17.656 23.36C16.0773 24.0427 14.3173 24.384 12.376 24.384ZM32.051 24.256C30.2377 24.256 28.6057 23.8827 27.155 23.136C25.7257 22.368 24.6057 21.312 23.795 19.968C22.9843 18.624 22.579 17.0987 22.579 15.392C22.579 13.6853 22.9843 12.16 23.795 10.816C24.6057 9.472 25.7257 8.42667 27.155 7.68C28.6057 6.912 30.2377 6.528 32.051 6.528C33.8643 6.528 35.4857 6.912 36.915 7.68C38.3443 8.42667 39.4643 9.472 40.275 10.816C41.0857 12.16 41.491 13.6853 41.491 15.392C41.491 17.0987 41.0857 18.624 40.275 19.968C39.4643 21.312 38.3443 22.368 36.915 23.136C35.4857 23.8827 33.8643 24.256 32.051 24.256ZM32.051 20.16C33.331 20.16 34.3763 19.7333 35.187 18.88C36.019 18.0053 36.435 16.8427 36.435 15.392C36.435 13.9413 36.019 12.7893 35.187 11.936C34.3763 11.0613 33.331 10.624 32.051 10.624C30.771 10.624 29.715 11.0613 28.883 11.936C28.051 12.7893 27.635 13.9413 27.635 15.392C27.635 16.8427 28.051 18.0053 28.883 18.88C29.715 19.7333 30.771 20.16 32.051 20.16ZM52.6998 24.256C50.8864 24.256 49.2544 23.8827 47.8038 23.136C46.3744 22.368 45.2544 21.312 44.4438 19.968C43.6331 18.624 43.2278 17.0987 43.2278 15.392C43.2278 13.6853 43.6331 12.16 44.4438 10.816C45.2544 9.472 46.3744 8.42667 47.8038 7.68C49.2544 6.912 50.8864 6.528 52.6998 6.528C54.5131 6.528 56.1344 6.912 57.5638 7.68C58.9931 8.42667 60.1131 9.472 60.9238 10.816C61.7344 12.16 62.1398 13.6853 62.1398 15.392C62.1398 17.0987 61.7344 18.624 60.9238 19.968C60.1131 21.312 58.9931 22.368 57.5638 23.136C56.1344 23.8827 54.5131 24.256 52.6998 24.256ZM52.6998 20.16C53.9798 20.16 55.0251 19.7333 55.8358 18.88C56.6678 18.0053 57.0838 16.8427 57.0838 15.392C57.0838 13.9413 56.6678 12.7893 55.8358 11.936C55.0251 11.0613 53.9798 10.624 52.6998 10.624C51.4198 10.624 50.3638 11.0613 49.5318 11.936C48.6998 12.7893 48.2838 13.9413 48.2838 15.392C48.2838 16.8427 48.6998 18.0053 49.5318 18.88C50.3638 19.7333 51.4198 20.16 52.6998 20.16ZM76.2605 23.168C75.7698 23.5307 75.1618 23.808 74.4365 24C73.7325 24.1707 72.9858 24.256 72.1965 24.256C70.1485 24.256 68.5592 23.7333 67.4285 22.688C66.3192 21.6427 65.7645 20.1067 65.7645 18.08V11.008H63.1085V7.168H65.7645V2.976H70.7565V7.168H75.0445V11.008H70.7565V18.016C70.7565 18.7413 70.9378 19.3067 71.3005 19.712C71.6845 20.096 72.2178 20.288 72.9005 20.288C73.6898 20.288 74.3618 20.0747 74.9165 19.648L76.2605 23.168ZM95.0755 15.456C95.0755 15.52 95.0435 15.968 94.9795 16.8H81.9555C82.1902 17.8667 82.7448 18.7093 83.6195 19.328C84.4942 19.9467 85.5822 20.256 86.8835 20.256C87.7795 20.256 88.5688 20.128 89.2515 19.872C89.9555 19.5947 90.6062 19.168 91.2035 18.592L93.8595 21.472C92.2382 23.328 89.8702 24.256 86.7555 24.256C84.8142 24.256 83.0968 23.8827 81.6035 23.136C80.1102 22.368 78.9582 21.312 78.1475 19.968C77.3368 18.624 76.9315 17.0987 76.9315 15.392C76.9315 13.7067 77.3262 12.192 78.1155 10.848C78.9262 9.48267 80.0248 8.42667 81.4115 7.68C82.8195 6.912 84.3875 6.528 86.1155 6.528C87.8008 6.528 89.3262 6.89067 90.6915 7.616C92.0568 8.34133 93.1235 9.38667 93.8915 10.752C94.6808 12.096 95.0755 13.664 95.0755 15.456ZM86.1475 10.304C85.0168 10.304 84.0675 10.624 83.2995 11.264C82.5315 11.904 82.0622 12.7787 81.8915 13.888H90.3715C90.2008 12.8 89.7315 11.936 88.9635 11.296C88.1955 10.6347 87.2568 10.304 86.1475 10.304ZM98.079 0.255999H103.071V24H98.079V0.255999ZM113.176 24.256C111.747 24.256 110.349 24.0853 108.984 23.744C107.619 23.3813 106.531 22.9333 105.72 22.4L107.384 18.816C108.152 19.3067 109.08 19.712 110.168 20.032C111.256 20.3307 112.323 20.48 113.368 20.48C115.48 20.48 116.536 19.9573 116.536 18.912C116.536 18.4213 116.248 18.0693 115.672 17.856C115.096 17.6427 114.211 17.4613 113.016 17.312C111.608 17.0987 110.445 16.8533 109.528 16.576C108.611 16.2987 107.811 15.808 107.128 15.104C106.467 14.4 106.136 13.3973 106.136 12.096C106.136 11.008 106.445 10.048 107.064 9.216C107.704 8.36267 108.621 7.70133 109.816 7.232C111.032 6.76267 112.461 6.528 114.104 6.528C115.32 6.528 116.525 6.66667 117.72 6.944C118.936 7.2 119.939 7.56267 120.728 8.032L119.064 11.584C117.549 10.7307 115.896 10.304 114.104 10.304C113.037 10.304 112.237 10.4533 111.704 10.752C111.171 11.0507 110.904 11.4347 110.904 11.904C110.904 12.4373 111.192 12.8107 111.768 13.024C112.344 13.2373 113.261 13.44 114.52 13.632C115.928 13.8667 117.08 14.1227 117.976 14.4C118.872 14.656 119.651 15.136 120.312 15.84C120.973 16.544 121.304 17.5253 121.304 18.784C121.304 19.8507 120.984 20.8 120.344 21.632C119.704 22.464 118.765 23.1147 117.528 23.584C116.312 24.032 114.861 24.256 113.176 24.256Z" fill="white"/>
</svg>
